<svg id="_x33_0" enable-background="new 0 0 64 64" height="512" viewBox="0 0 64 64" width="512" xmlns="http://www.w3.org/2000/svg"><g><path d="m35 16.711v-5.859c-.542-.211-.984-.642-1.177-1.218l-.277-.834c-1.83.877-3.222 2.4-3.956 4.242.135-.019.269-.042.41-.042 1.654 0 3 1.346 3 3s-1.346 3-3 3-3-1.346-3-3c0-3.975 2.338-7.521 5.906-9.12l-.615-1.844c-4.08.36-7.291 3.792-7.291 7.964v12.854c.455-.469.974-.883 1.557-1.215 2.609-1.489 6.164-4.07 8.443-7.928z"/><path d="m36.279 9 1.641-4.923-.538-1.077h-2.764l-.538 1.077 1.641 4.923z"/><path d="m33 42c0 1.654 1.346 3 3 3s3-1.346 3-3-1.346-3-3-3-3 1.346-3 3zm4 0c0 .552-.448 1-1 1s-1-.448-1-1 .448-1 1-1 1 .448 1 1z"/><path d="m37 10.851v5.859c2.279 3.858 5.834 6.44 8.443 7.928.582.332 1.101.746 1.557 1.215v-12.853c0-4.172-3.211-7.604-7.291-7.964l-.615 1.844c3.568 1.599 5.906 5.145 5.906 9.12 0 1.654-1.346 3-3 3s-3-1.346-3-3 1.346-3 3-3c.141 0 .275.023.411.042-.734-1.842-2.126-3.366-3.957-4.242l-.278.833c-.192.576-.634 1.007-1.176 1.218z"/><circle cx="42" cy="16" r="1"/><path d="m41 33.009c0 1.097.891 1.991 1.986 1.991 1.058 0 1.983-.384 2.68-1.08.875-.875 1.334-1.983 1.334-3.163 0-1.806-.976-3.485-2.548-4.381-2.233-1.273-5.107-3.301-7.452-6.187v16.912c1.659.338 3.015 1.504 3.634 3.042l6.366.735v-5.484c-1.098 1.042-2.473 1.606-3.94 1.606-2.272 0-4.06-1.791-4.06-3.99 0-2.211 1.794-4.01 3.999-4.01v2c-1.102 0-1.999.901-1.999 2.009z"/><path d="m52 50c0-.435.098-.847.265-1.221-.585-.083-1.226-.199-1.887-.357.149.661.269 1.328.364 1.998.468.116.922.213 1.351.287-.055-.227-.093-.462-.093-.707z"/><circle cx="30" cy="16" r="1"/><path d="m55 51c.551 0 1-.449 1-1s-.449-1-1-1-1 .449-1 1 .449 1 1 1z"/><path d="m58.767 46.233c-1.429.036-2.791-.526-3.767-1.56-.977 1.034-2.358 1.595-3.767 1.56.003.111-.006.221-.01.332 2 .428 3.754.435 3.777.435 1.654 0 3 1.346 3 3s-1.346 3-3 3c-.088 0-1.863-.013-4.055-.479.023.419.049.839.051 1.26 1.507-.115 2.974.453 4.004 1.545.977-1.035 2.353-1.6 3.767-1.56-.041-1.422.526-2.791 1.56-3.767-1.035-.976-1.601-2.343-1.56-3.766z"/><path d="m35 37.101v-16.912c-2.345 2.885-5.22 4.913-7.452 6.187-1.572.896-2.548 2.575-2.548 4.381 0 1.179.459 2.288 1.293 3.122.723.723 1.685 1.121 2.707 1.121 1.107 0 2-.894 2-1.991 0-1.108-.897-2.009-1.999-2.009v-2c2.205 0 3.999 1.798 3.999 4.009 0 2.2-1.79 3.99-3.99 3.991-1.512 0-2.924-.569-4.01-1.597v.285c0 1.68-.383 3.283-1.067 4.725l7.677-.755c.692-1.291 1.914-2.256 3.39-2.557z"/><path d="m47.057 42.898-6.077-.701c-.106 2.664-2.291 4.803-4.98 4.803-2.757 0-5-2.243-5-5 0-.094.023-.182.028-.275l-8.433.83c-1.323 1.655-3.125 2.937-5.259 3.616l-8.064 2.565c-3.652 1.162-6.13 4.459-6.26 8.264h23.26c2.137 0 4.146-.832 5.657-2.343l2.192-2.192c.945-.945 2.2-1.465 3.536-1.465h3.343v2h-3.343c-.79 0-1.563.32-2.121.878l-2.192 2.192c-1.889 1.89-4.401 2.93-7.072 2.93h-23.088c.414 1.161 1.514 2 2.816 2h22.272c2.137 0 4.146-.832 5.657-2.343l2.192-2.192c.945-.945 2.2-1.465 3.536-1.465h3.343v2h-2v3c0 .551.449 1 1 1h6c.551 0 1-.449 1-1v-6.109c0-2.474-.396-4.918-1.179-7.265-.404-1.212-.658-2.461-.764-3.728z"/></g></svg>