<?xml version="1.0" encoding="utf-8"?>
<!-- Generator: Adobe Illustrator 23.1.1, SVG Export Plug-In . SVG Version: 6.00 Build 0)  -->
<svg version="1.1" id="_x33_0" xmlns="http://www.w3.org/2000/svg" xmlns:xlink="http://www.w3.org/1999/xlink" x="0px" y="0px"
	 viewBox="0 0 512 512" style="enable-background:new 0 0 512 512;" xml:space="preserve">
<style type="text/css">
	.st0{fill:#222222;}
</style>
<g>
	<path class="st0" d="M280,133.7V86.8c-4.3-1.7-7.9-5.1-9.4-9.7l-2.2-6.7c-14.6,7-25.8,19.2-31.6,33.9c1.1-0.2,2.2-0.3,3.3-0.3
		c13.2,0,24,10.8,24,24s-10.8,24-24,24s-24-10.8-24-24c0-31.8,18.7-60.2,47.2-73l-4.9-14.8C225.7,43.2,200,70.6,200,104v102.8
		c3.6-3.8,7.8-7.1,12.5-9.7C233.3,185.2,261.8,164.6,280,133.7L280,133.7z"/>
	<path class="st0" d="M290.2,72l13.1-39.4l-4.3-8.6h-22.1l-4.3,8.6L285.8,72H290.2z"/>
	<path class="st0" d="M264,336c0,13.2,10.8,24,24,24s24-10.8,24-24s-10.8-24-24-24S264,322.8,264,336z M296,336c0,4.4-3.6,8-8,8
		s-8-3.6-8-8s3.6-8,8-8S296,331.6,296,336z"/>
	<path class="st0" d="M296,86.8v46.9c18.2,30.9,46.7,51.5,67.5,63.4c4.7,2.7,8.8,6,12.5,9.7V104c0-33.4-25.7-60.8-58.3-63.7
		L312.8,55c28.5,12.8,47.2,41.2,47.2,73c0,13.2-10.8,24-24,24s-24-10.8-24-24s10.8-24,24-24c1.1,0,2.2,0.2,3.3,0.3
		c-5.9-14.7-17-26.9-31.7-33.9l-2.2,6.7C303.9,81.7,300.3,85.1,296,86.8L296,86.8z"/>
	<circle class="st0" cx="336" cy="128" r="8"/>
	<path class="st0" d="M328,264.1c0,8.8,7.1,15.9,15.9,15.9c8.5,0,15.9-3.1,21.4-8.6c7-7,10.7-15.9,10.7-25.3
		c0-14.4-7.8-27.9-20.4-35c-17.9-10.2-40.9-26.4-59.6-49.5v135.3c13.3,2.7,24.1,12,29.1,24.3L376,327v-43.9
		c-8.8,8.3-19.8,12.8-31.5,12.8c-18.2,0-32.5-14.3-32.5-31.9c0-17.7,14.4-32.1,32-32.1v16C335.2,248,328,255.2,328,264.1L328,264.1z
		"/>
	<path class="st0" d="M416,400c0-3.5,0.8-6.8,2.1-9.8c-4.7-0.7-9.8-1.6-15.1-2.9c1.2,5.3,2.2,10.6,2.9,16c3.7,0.9,7.4,1.7,10.8,2.3
		C416.3,403.8,416,402,416,400z"/>
	<circle class="st0" cx="240" cy="128" r="8"/>
	<path class="st0" d="M440,408c4.4,0,8-3.6,8-8s-3.6-8-8-8s-8,3.6-8,8S435.6,408,440,408z"/>
	<path class="st0" d="M470.1,369.9c-11.4,0.3-22.3-4.2-30.1-12.5c-7.8,8.3-18.9,12.8-30.1,12.5c0,0.9,0,1.8-0.1,2.7
		c16,3.4,30,3.5,30.2,3.5c13.2,0,24,10.8,24,24s-10.8,24-24,24c-0.7,0-14.9-0.1-32.4-3.8c0.2,3.4,0.4,6.7,0.4,10.1
		c12.1-0.9,23.8,3.6,32,12.4c7.8-8.3,18.8-12.8,30.1-12.5c-0.3-11.4,4.2-22.3,12.5-30.1C474.3,392.2,469.8,381.2,470.1,369.9
		L470.1,369.9z"/>
	<path class="st0" d="M280,296.8V161.5c-18.8,23.1-41.8,39.3-59.6,49.5c-12.6,7.2-20.4,20.6-20.4,35c0,9.4,3.7,18.3,10.3,25
		c5.8,5.8,13.5,9,21.7,9c8.9,0,16-7.2,16-15.9c0-8.9-7.2-16.1-16-16.1v-16c17.6,0,32,14.4,32,32.1c0,17.6-14.3,31.9-31.9,31.9
		c-12.1,0-23.4-4.6-32.1-12.8v2.3c0,13.4-3.1,26.3-8.5,37.8l61.4-6C258.4,306.9,268.2,299.2,280,296.8L280,296.8z"/>
	<path class="st0" d="M376.5,343.2l-48.6-5.6C327,358.9,309.5,376,288,376c-22.1,0-40-17.9-40-40c0-0.8,0.2-1.5,0.2-2.2l-67.5,6.6
		c-10.6,13.2-25,23.5-42.1,28.9l-64.5,20.5c-29.2,9.3-49,35.7-50.1,66.1h186.1c17.1,0,33.2-6.7,45.3-18.7l17.5-17.5
		c7.6-7.6,17.6-11.7,28.3-11.7H328v16h-26.7c-6.3,0-12.5,2.6-17,7l-17.5,17.5c-15.1,15.1-35.2,23.4-56.6,23.4H25.5
		c3.3,9.3,12.1,16,22.5,16h178.2c17.1,0,33.2-6.7,45.3-18.7l17.5-17.5c7.6-7.6,17.6-11.7,28.3-11.7H344v16h-16v24c0,4.4,3.6,8,8,8
		h48c4.4,0,8-3.6,8-8v-48.9c0-19.8-3.2-39.3-9.4-58.1C379.3,363.3,377.3,353.3,376.5,343.2z"/>
</g>
</svg>
