<?xml version="1.0" encoding="iso-8859-1"?>
<!-- Generator: Adobe Illustrator 19.0.0, SVG Export Plug-In . SVG Version: 6.00 Build 0)  -->
<svg version="1.1" id="Capa_1" xmlns="http://www.w3.org/2000/svg" xmlns:xlink="http://www.w3.org/1999/xlink" x="0px" y="0px"
	 viewBox="0 0 512 512" style="enable-background:new 0 0 512 512;" xml:space="preserve">
<g>
	<g>
		<path d="M511.188,294.823c-2.063-4.938-7.333-7.542-12.396-6.281l-1.854-9.938c-4.688-25.188-26.729-43.458-52.438-43.458h-49.833
			c-3.063,0-6.104,0.188-9.25,0.375c-17.917,1.198-37.979,2.365-90.688-40.458c-53.875-43.781-66.667-45.729-102.729-45.729
			c-24.271,0-37.5,12.021-49.188,22.635c-12.229,11.115-22.792,20.708-46.813,20.708c-47.458,0-67.042-18.042-67.146-18.135
			c-2.396-2.417-5.917-3.573-9.229-2.969c-3.375,0.552-6.292,2.688-7.833,5.74C11.312,178.281,0,201.323,0,245.812
			c0,24.529,3.424,42.29,6.594,53.674C2.725,301.087,0,304.883,0,309.333V352c0,5.896,4.771,10.667,10.667,10.667h128
			c5.896,0,10.667-4.771,10.667-10.667v-30.876c14.966,2.02,26.448,7.914,40.021,15.303c21.521,11.688,48.271,26.24,98.646,26.24
			c86.458,0,212.104-51.708,217.417-53.906C510.854,306.5,513.438,300.26,511.188,294.823z M232.875,208.583
			c-2.063,3.083-5.438,4.75-8.875,4.75c-2.042,0-4.104-0.583-5.917-1.792c-4.896-3.271-6.229-9.885-2.958-14.792l13.995-21
			c5.423,2.267,11.517,5.773,18.625,10.521L232.875,208.583z M275.542,240.583c-2.063,3.083-5.438,4.75-8.875,4.75
			c-2.042,0-4.104-0.583-5.917-1.792c-4.896-3.271-6.229-9.885-2.958-14.792l15.589-23.383c2.646,2.103,4.975,3.888,7.891,6.258
			c3.217,2.615,5.97,4.544,8.995,6.872L275.542,240.583z M318.208,272.583c-2.063,3.083-5.438,4.75-8.875,4.75
			c-2.042,0-4.104-0.583-5.917-1.792c-4.896-3.271-6.229-9.885-2.958-14.792l15.909-23.862c6.728,4.171,13.052,7.773,18.688,10.427
			L318.208,272.583z"/>
	</g>
</g>
<g>
</g>
<g>
</g>
<g>
</g>
<g>
</g>
<g>
</g>
<g>
</g>
<g>
</g>
<g>
</g>
<g>
</g>
<g>
</g>
<g>
</g>
<g>
</g>
<g>
</g>
<g>
</g>
<g>
</g>
</svg>
